<svg width="48px" height="48px" xmlns="http://www.w3.org/2000/svg" viewBox="0 0 48 48"><defs><style>.cls-1,.cls-2{fill:none;}.cls-1,.cls-2,.cls-3{stroke:#666;stroke-linejoin:round;stroke-width:2px;}.cls-2{stroke-linecap:round;}.cls-3{fill:#e5e5e5;}</style></defs><title>Identify - Disabled</title><g id="Categories_and_Labels" data-name="Categories and Labels"><circle class="cls-1" cx="37.45" cy="33.29" r="9.33"/><polyline class="cls-2" points="34.19 32.77 37.29 36.21 47 25.13"/><path class="cls-3" d="M22.27,38.82V33.71a4,4,0,0,0-4.1-3.85H10.88c-2.21,0-4.47,1.69-4.47,3.8v5.17Z"/><ellipse class="cls-1" cx="14.2" cy="21.25" rx="5.94" ry="5.88"/><line class="cls-2" x1="27.13" y1="20.11" x2="33.98" y2="20.11"/><line class="cls-2" x1="27.13" y1="25.08" x2="32.99" y2="25.08"/><path class="cls-1" d="M43.06,25.83V12.75a3.37,3.37,0,0,0-3.37-3.37H4.37A3.37,3.37,0,0,0,1,12.75v22.7a3.37,3.37,0,0,0,3.37,3.37H29.93"/></g></svg>
