<svg id="Illustrations" xmlns="http://www.w3.org/2000/svg" viewBox="0 0 288 150" width="288px" height="150px"><defs><style>.cls-1{fill:#f0f0f0;}.cls-1,.cls-2{stroke:#d9d9d9;}.cls-1,.cls-10,.cls-11,.cls-2,.cls-3,.cls-4,.cls-6,.cls-9{stroke-linecap:round;stroke-linejoin:round;stroke-width:2px;}.cls-2,.cls-4,.cls-6{fill:none;}.cls-3,.cls-8{fill:#fff;}.cls-10,.cls-11,.cls-3,.cls-4,.cls-9{stroke:#0467c6;}.cls-10,.cls-5{fill:#9bc2e8;}.cls-6{stroke:#fff;}.cls-7{fill:#e5eff9;}.cls-9{fill:#b3d1ed;}.cls-11,.cls-12{fill:#6bb966;}</style></defs><title>Do_it_online</title><rect class="cls-1" x="237.99" y="144.33" width="31.92" height="4.67"/><rect class="cls-1" x="248.81" y="129.39" width="10.27" height="14.94"/><rect class="cls-1" x="249.75" y="126.59" width="8.4" height="2.8"/><rect class="cls-1" x="251.62" y="93.41" width="4.67" height="33.18"/><path class="cls-1" d="M273.58,72.18s6.54,5,6.54,21.23H227.77c0-16.22,6.54-21.23,6.54-21.23Z"/><line class="cls-2" x1="269.34" y1="93.41" x2="269.34" y2="105.6"/><circle class="cls-1" cx="269.35" cy="105.6" r="1.48"/><polyline class="cls-1" points="217.99 126.74 215.96 110.89 213.05 111.26 215.02 126.75"/><rect class="cls-1" x="213.28" y="111.06" width="2.94" height="3.92" transform="translate(-12.62 28.21) rotate(-7.3)"/><polyline class="cls-1" points="215.02 126.74 213.81 117.3 210.89 117.67 212.06 126.75"/><rect class="cls-1" x="211.13" y="117.47" width="2.94" height="3.92" transform="translate(-13.46 27.99) rotate(-7.3)"/><polyline class="cls-1" points="223.96 126.74 225.35 113.57 222.43 113.27 221 126.75"/><rect class="cls-1" x="221.72" y="113.9" width="3.92" height="2.94" transform="translate(85.46 325.7) rotate(-83.97)"/><polyline class="cls-1" points="229.69 126.75 232.52 111.63 228.55 110.89 225.58 126.75"/><line class="cls-2" x1="227.06" y1="118.83" x2="231.03" y2="119.57"/><polyline class="cls-2" points="232.15 113.6 235.17 114.29 233.89 121.31"/><path class="cls-2" d="M207.11,131.58h3.28a0,0,0,0,1,0,0v13.16a0,0,0,0,1,0,0h-3.28a2.93,2.93,0,0,1-2.93-2.93v-7.3A2.93,2.93,0,0,1,207.11,131.58Z"/><line class="cls-2" x1="232.64" y1="126.74" x2="208.45" y2="126.74"/><rect class="cls-1" x="210.39" y="126.74" width="20.32" height="22.26"/><rect class="cls-1" x="43.03" y="140.79" width="47.54" height="8.21"/><line class="cls-2" x1="49.92" y1="140.79" x2="49.92" y2="149"/><line class="cls-2" x1="83.68" y1="140.79" x2="83.68" y2="149"/><line class="cls-2" x1="62.31" y1="144.9" x2="71.29" y2="144.9"/><rect class="cls-1" x="49.42" y="132.59" width="34.75" height="8.21"/><line class="cls-2" x1="56.31" y1="132.59" x2="56.31" y2="140.79"/><line class="cls-2" x1="77.28" y1="132.59" x2="77.28" y2="140.79"/><line class="cls-2" x1="62.8" y1="136.81" x2="70.8" y2="136.81"/><path class="cls-3" d="M61.85,149a10.13,10.13,0,0,1,20.27,0Z"/><line class="cls-4" x1="68.64" y1="139.42" x2="68.64" y2="141.36"/><line class="cls-4" x1="75.33" y1="139.42" x2="75.33" y2="141.36"/><rect class="cls-5" x="100.66" y="143" width="58" height="6"/><line class="cls-6" x1="102.67" y1="149" x2="102.67" y2="143"/><rect class="cls-4" x="100.66" y="143" width="58" height="6"/><rect class="cls-5" x="113.66" y="112" width="32" height="31"/><line class="cls-6" x1="115.67" y1="143" x2="115.67" y2="112"/><rect class="cls-4" x="113.66" y="112" width="32" height="31"/><path class="cls-7" d="M50.66,43V22a4.11,4.11,0,0,1,4.13-4h150a3.91,3.91,0,0,1,3.87,4v86a3.9,3.9,0,0,1-3.87,4h-150a4.11,4.11,0,0,1-4.13-4V43Z"/><path class="cls-6" d="M56.79,112a4.11,4.11,0,0,1-4.13-4V22a4.11,4.11,0,0,1,4.13-4"/><path class="cls-6" d="M54.79,112a4.11,4.11,0,0,1-4.13-4V22a4.11,4.11,0,0,1,4.13-4"/><path class="cls-4" d="M50.66,35.45V22a4.11,4.11,0,0,1,4.13-4h150a3.91,3.91,0,0,1,3.87,4v86a3.9,3.9,0,0,1-3.87,4h-150a4.11,4.11,0,0,1-4.13-4V39.45"/><rect class="cls-8" x="78.51" y="37.07" width="102.31" height="60.93"/><rect class="cls-4" x="78.51" y="37.07" width="102.31" height="60.93"/><rect class="cls-9" x="78.51" y="37.07" width="102.31" height="17.24"/><line class="cls-4" x1="153.79" y1="68.11" x2="165.29" y2="68.11"/><line class="cls-4" x1="150.3" y1="68.15" x2="150.3" y2="68.15"/><line class="cls-4" x1="150.3" y1="74.2" x2="150.3" y2="74.2"/><line class="cls-4" x1="153.79" y1="75.01" x2="167.59" y2="75.01"/><line class="cls-4" x1="150.3" y1="80.24" x2="150.3" y2="80.24"/><line class="cls-4" x1="153.79" y1="79.61" x2="160.69" y2="79.61"/><line class="cls-4" x1="153.79" y1="84.2" x2="168.74" y2="84.2"/><rect class="cls-7" x="90.12" y="68.11" width="45.98" height="12.65" rx="2" ry="2"/><path class="cls-7" d="M92.42,83.05h9.31a2.19,2.19,0,0,1,2.19,2.19V98a0,0,0,0,1,0,0H90.12a0,0,0,0,1,0,0V85.36a2.3,2.3,0,0,1,2.3-2.3Z"/><path class="cls-7" d="M108.51,83.05H134.7a2.55,2.55,0,0,1,2.55,2.55V98a0,0,0,0,1,0,0h-31a0,0,0,0,1,0,0V85.36A2.3,2.3,0,0,1,108.51,83.05Z"/><line class="cls-4" x1="151.5" y1="46.27" x2="164.14" y2="46.27"/><line class="cls-4" x1="168.74" y1="46.27" x2="168.74" y2="46.27"/><circle class="cls-10" cx="100.98" cy="45.83" r="2.01"/><circle class="cls-10" cx="92.13" cy="45.83" r="2.01"/><circle class="cls-10" cx="109.82" cy="45.83" r="2.01"/><rect class="cls-4" x="56.66" y="24" width="146" height="74"/><rect class="cls-3" x="170.75" y="142" width="6" height="3"/><rect class="cls-3" x="176.75" y="142" width="6" height="3"/><rect class="cls-3" x="186.75" y="142" width="20" height="3"/><rect class="cls-3" x="210.75" y="142" width="6" height="3"/><rect class="cls-3" x="216.75" y="142" width="6" height="3"/><rect class="cls-10" x="168.75" y="145" width="56" height="4"/><ellipse class="cls-11" cx="12.44" cy="120.93" rx="2.92" ry="3.4" transform="translate(-86.21 49.89) rotate(-48.37)"/><ellipse class="cls-12" cx="22.36" cy="124.17" rx="10.9" ry="9.37" transform="translate(-103.8 125.5) rotate(-80.4)"/><path class="cls-6" d="M15.23,127.71a12.31,12.31,0,0,1-.19-5.1,12,12,0,0,1,3.4-6.62"/><ellipse class="cls-4" cx="22.36" cy="124.17" rx="10.9" ry="9.37" transform="translate(-103.8 125.5) rotate(-80.4)"/><path class="cls-5" d="M28.83,149H14.76c-4.06,0-6.55-21.29-6.55-21.29H35.38S33.48,149,28.83,149Z"/><path class="cls-6" d="M16.65,149c-4.06,0-6.55-21.29-6.55-21.29"/><path class="cls-4" d="M28.83,149H14.76c-4.06,0-6.55-21.29-6.55-21.29H35.38S33.48,149,28.83,149Z"/><ellipse class="cls-11" cx="24.65" cy="101.86" rx="3.4" ry="2.92" transform="translate(-70.44 57.81) rotate(-51.54)"/><ellipse class="cls-12" cx="20.13" cy="109.07" rx="6.66" ry="7.75" transform="translate(-55.18 27.65) rotate(-32.31)"/><path class="cls-6" d="M22,116.45a8.2,8.2,0,0,1-5.62-3.82c-2.29-3.62-1.62-8.14,1.49-10.11a5.83,5.83,0,0,1,2.24-.83"/><ellipse class="cls-4" cx="20.13" cy="109.07" rx="6.66" ry="7.75" transform="translate(-55.18 27.65) rotate(-32.31)"/><line class="cls-4" x1="279.09" y1="149" x2="289" y2="149"/><line class="cls-4" x1="39.36" y1="149" x2="275.08" y2="149"/><line class="cls-4" x1="1" y1="149" x2="35.36" y2="149"/></svg>
