<svg width="48px" height="48px" id="Icons" xmlns="http://www.w3.org/2000/svg" viewBox="0 0 48 48"><defs><style>.cls-1{fill:#9bc2e8;}.cls-1,.cls-2,.cls-3{stroke:#0467c6;stroke-linejoin:round;stroke-width:2px;}.cls-2{fill:none;}.cls-3{fill:#fff;stroke-linecap:round;}</style></defs><title>Credit_Cards</title><rect class="cls-1" x="38.98" y="19.12" width="8.02" height="4.41"/><path class="cls-2" d="M9,34v4.15a3.38,3.38,0,0,0,3.38,3.38H43.62A3.38,3.38,0,0,0,47,38.13V17.39A3.38,3.38,0,0,0,43.62,14H39"/><rect class="cls-2" x="1" y="6.49" width="37.98" height="27.49" rx="3.37" ry="3.37"/><rect class="cls-1" x="6.02" y="11.51" width="11.53" height="6.92" rx="2" ry="2"/><line class="cls-3" x1="6.02" y1="25.35" x2="12.93" y2="25.35"/><line class="cls-3" x1="17.55" y1="25.35" x2="19.85" y2="25.35"/><line class="cls-3" x1="23.31" y1="25.35" x2="25.62" y2="25.35"/><line class="cls-3" x1="29.08" y1="25.35" x2="31.38" y2="25.35"/></svg>