<svg width="48px" height="48px" xmlns="http://www.w3.org/2000/svg" viewBox="0 0 48 48"><defs><style>.cls-1,.cls-3{fill:#9dd099;}.cls-1,.cls-2,.cls-3{stroke:#098a00;}.cls-1{stroke-miterlimit:10;}.cls-2{fill:none;}.cls-2,.cls-3{stroke-linecap:round;stroke-linejoin:round;stroke-width:2px;}</style></defs><title>When - Complete</title><g id="Categories_and_Labels" data-name="Categories and Labels"><path class="cls-1" d="M3,6.56V19.65H45V6.56Zm10,8.86A2.44,2.44,0,1,1,15.42,13s0,0,0,0A2.44,2.44,0,0,1,13,15.41Zm21.73,0A2.44,2.44,0,1,1,37.15,13s0,0,0,0a2.44,2.44,0,0,1-2.44,2.41Z"/><line class="cls-2" x1="3.87" y1="19.65" x2="45" y2="19.65"/><circle class="cls-2" cx="12.98" cy="12.98" r="2.44"/><circle class="cls-2" cx="34.71" cy="12.98" r="2.44"/><polyline class="cls-2" points="34.66 44.12 3 44.12 3 6.56 45 6.56 45 33.85"/><polygon class="cls-3" points="34.66 44.12 34.66 33.85 45 33.85 34.66 44.12"/><line class="cls-2" x1="12.98" y1="10.54" x2="12.98" y2="3.88"/><line class="cls-2" x1="34.71" y1="10.54" x2="34.71" y2="3.88"/></g></svg>