<svg width="48px" height="48px" xmlns="http://www.w3.org/2000/svg" viewBox="0 0 48 48"><defs><style>.cls-1,.cls-5{fill:#9dd099;}.cls-1,.cls-2,.cls-3,.cls-4,.cls-5{stroke:#098a00;}.cls-1{stroke-miterlimit:10;}.cls-2,.cls-3,.cls-4{fill:none;}.cls-2,.cls-3{stroke-linecap:round;}.cls-2,.cls-3,.cls-4,.cls-5{stroke-linejoin:round;stroke-width:2px;}.cls-3{stroke-dasharray:2.57 3.29;}</style></defs><title>Where - Complete</title><g id="Categories_and_Labels" data-name="Categories and Labels"><path class="cls-1" d="M9,1A6.87,6.87,0,0,0,2.14,7.86h0C2.14,14.26,9,22.41,9,22.41s6.86-8.29,6.86-14.54A6.87,6.87,0,0,0,9,1ZM9,11.26a2.63,2.63,0,1,1,2.63-2.63h0A2.63,2.63,0,0,1,9,11.26Z"/><line class="cls-2" x1="18.26" y1="14.46" x2="19.51" y2="14.46"/><path class="cls-3" d="M22.79,14.46h4a4.95,4.95,0,0,1,0,9.89H18a4.94,4.94,0,0,0-4.94,4.94h0v.42A4.94,4.94,0,0,0,18,34.65h6.86"/><line class="cls-2" x1="26.51" y1="34.65" x2="27.76" y2="34.65"/><path class="cls-4" d="M45.86,32.44C45.86,38.69,39,47,39,47s-6.86-8.14-6.86-14.54a6.86,6.86,0,0,1,13.72,0Z"/><circle class="cls-5" cx="39" cy="33.21" r="2.63"/><path class="cls-4" d="M15.86,7.88C15.86,14.12,9,22.41,9,22.41S2.14,14.26,2.14,7.88a6.86,6.86,0,1,1,13.72,0Z"/><circle class="cls-4" cx="9" cy="8.63" r="2.63"/></g></svg>